<svg xmlns="http://www.w3.org/2000/svg" viewBox="-5.422 -34.742 837.880 47.885" width="837.880" height="47.885" role="img" aria-label="Z ( 7 ) , … , Z ( 1 4 ) = 9 , 1 8 , 3 6 , 6 0 , 1 0 0 , 1 5 0 , 2 2 5 , 3 1 5"><rect x="-5.422" y="-34.742" width="837.880" height="47.885" fill="#ffffff"/>
  <g fill="#1d1b18">
    <path d="M559 186 L501 0 L-3 0 L2 29 L508 611 L508 615 L325 615 Q274 615 243 607 Q212 600 191 574 Q170 548 148 492 L116 492 L153 657 L639 657 L633 629 L129 46 L129 41 L334 41 Q391 41 423 54 Q456 67 478 99 Q501 131 529 186 L559 186 Z" transform="translate(0 0) scale(0.04 -0.04)"/>
    <path d="M45 270 Q45 437 117 555 Q190 673 311 736 L327 710 Q218 636 172 529 Q127 423 127 270 Q127 117 172 10 Q218 -96 327 -170 L311 -196 Q190 -133 117 -15 Q45 103 45 270 Z" transform="translate(24.24 0) scale(0.04 -0.04)"/>
    <path d="M464 599 L230 -8 L151 -8 L387 549 L164 549 Q136 549 121 544 Q106 539 96 523 Q87 507 73 474 L42 477 L82 630 L464 630 L464 599 Z" transform="translate(38.52 0) scale(0.04 -0.04)"/>
    <path d="M312 270 Q312 103 239 -15 Q167 -133 46 -196 L30 -170 Q140 -96 185 10 Q230 117 230 270 Q230 423 185 529 Q140 636 30 710 L46 736 Q167 673 239 555 Q312 437 312 270 Z" transform="translate(58.32 0) scale(0.04 -0.04)"/>
    <path d="M70 -132 L58 -107 Q77 -99 96 -86 Q115 -74 128 -50 Q141 -26 141 14 Q125 8 110 8 Q81 8 68 24 Q55 40 55 62 Q55 86 71 103 Q87 121 117 121 Q155 121 174 97 Q194 74 194 33 Q194 -9 180 -38 Q167 -67 147 -85 Q127 -103 106 -114 Q85 -125 70 -132 Z" transform="translate(72.6 0) scale(0.04 -0.04)"/>
    <path d="M221 50 Q221 27 205 9 Q189 -8 159 -8 Q129 -8 114 9 Q100 26 100 51 Q100 77 116 95 Q132 114 160 114 Q189 114 205 95 Q221 76 221 50 Z M504 50 Q504 27 488 9 Q472 -8 442 -8 Q412 -8 397 9 Q383 26 383 51 Q383 77 399 95 Q415 114 443 114 Q472 114 488 95 Q504 76 504 50 Z M787 50 Q787 27 771 9 Q755 -8 725 -8 Q695 -8 680 9 Q666 26 666 51 Q666 77 682 95 Q698 114 726 114 Q755 114 771 95 Q787 76 787 50 Z" transform="translate(89.0667 0) scale(0.04 -0.04)"/>
    <path d="M70 -132 L58 -107 Q77 -99 96 -86 Q115 -74 128 -50 Q141 -26 141 14 Q125 8 110 8 Q81 8 68 24 Q55 40 55 62 Q55 86 71 103 Q87 121 117 121 Q155 121 174 97 Q194 74 194 33 Q194 -9 180 -38 Q167 -67 147 -85 Q127 -103 106 -114 Q85 -125 70 -132 Z" transform="translate(131.2133 0) scale(0.04 -0.04)"/>
    <path d="M559 186 L501 0 L-3 0 L2 29 L508 611 L508 615 L325 615 Q274 615 243 607 Q212 600 191 574 Q170 548 148 492 L116 492 L153 657 L639 657 L633 629 L129 46 L129 41 L334 41 Q391 41 423 54 Q456 67 478 99 Q501 131 529 186 L559 186 Z" transform="translate(147.68 0) scale(0.04 -0.04)"/>
    <path d="M45 270 Q45 437 117 555 Q190 673 311 736 L327 710 Q218 636 172 529 Q127 423 127 270 Q127 117 172 10 Q218 -96 327 -170 L311 -196 Q190 -133 117 -15 Q45 103 45 270 Z" transform="translate(171.92 0) scale(0.04 -0.04)"/>
    <path d="M426 0 L80 0 L80 28 Q151 28 180 43 Q209 58 209 95 L209 518 Q209 544 202 555 Q195 567 176 567 Q161 567 129 563 Q97 559 74 551 L74 584 L268 639 L297 639 L297 95 Q297 58 327 43 Q357 28 426 28 L426 0 Z" transform="translate(186.2 0) scale(0.04 -0.04)"/>
    <path d="M481 158 L379 158 L379 0 L290 0 L290 158 L13 158 L13 221 L318 645 L379 645 L379 227 L481 227 L481 158 Z M290 227 L290 536 L286 536 L68 231 L68 227 L290 227 Z" transform="translate(206 0) scale(0.04 -0.04)"/>
    <path d="M312 270 Q312 103 239 -15 Q167 -133 46 -196 L30 -170 Q140 -96 185 10 Q230 117 230 270 Q230 423 185 529 Q140 636 30 710 L46 736 Q167 673 239 555 Q312 437 312 270 Z" transform="translate(225.8 0) scale(0.04 -0.04)"/>
    <path d="M658 327 L62 327 L62 395 L658 395 L658 327 Z M658 123 L62 123 L62 190 L658 190 L658 123 Z" transform="translate(251.1911 0) scale(0.04 -0.04)"/>
    <path d="M85 -13 L83 16 Q152 24 210 56 Q268 89 306 145 Q345 202 356 283 L350 284 Q316 253 286 237 Q257 222 219 222 Q137 222 88 277 Q39 333 39 432 Q39 533 92 589 Q146 646 240 646 Q315 646 361 609 Q407 572 428 510 Q450 448 450 374 Q450 245 405 159 Q360 74 278 31 Q196 -12 85 -13 Z M126 438 Q126 368 156 324 Q187 281 249 281 Q293 281 326 307 Q360 334 360 398 Q360 461 347 509 Q335 557 307 584 Q280 612 236 612 Q187 612 156 573 Q126 534 126 438 Z" transform="translate(291.1022 0) scale(0.04 -0.04)"/>
    <path d="M70 -132 L58 -107 Q77 -99 96 -86 Q115 -74 128 -50 Q141 -26 141 14 Q125 8 110 8 Q81 8 68 24 Q55 40 55 62 Q55 86 71 103 Q87 121 117 121 Q155 121 174 97 Q194 74 194 33 Q194 -9 180 -38 Q167 -67 147 -85 Q127 -103 106 -114 Q85 -125 70 -132 Z" transform="translate(310.9022 0) scale(0.04 -0.04)"/>
    <path d="M426 0 L80 0 L80 28 Q151 28 180 43 Q209 58 209 95 L209 518 Q209 544 202 555 Q195 567 176 567 Q161 567 129 563 Q97 559 74 551 L74 584 L268 639 L297 639 L297 95 Q297 58 327 43 Q357 28 426 28 L426 0 Z" transform="translate(334.0356 0) scale(0.04 -0.04)"/>
    <path d="M448 150 Q448 71 391 29 Q335 -12 246 -12 Q159 -12 102 27 Q46 66 46 142 Q46 182 61 209 Q76 237 106 261 Q137 285 183 316 L183 319 Q132 355 105 382 Q79 410 69 437 Q59 465 59 499 Q59 545 83 578 Q108 611 151 629 Q194 647 249 647 Q299 647 338 629 Q378 611 401 580 Q424 549 424 509 Q424 473 411 447 Q398 421 370 399 Q342 378 295 352 L295 349 Q354 314 387 283 Q420 253 434 221 Q448 190 448 150 Z M213 300 Q170 266 147 234 Q124 202 124 150 Q124 83 158 51 Q193 19 250 19 Q297 19 330 44 Q364 70 364 121 Q364 153 351 179 Q339 205 306 233 Q274 261 213 300 Z M350 511 Q350 561 322 587 Q295 614 247 614 Q196 614 166 588 Q137 563 137 517 Q137 473 167 441 Q197 409 264 368 Q314 398 332 430 Q350 463 350 511 Z" transform="translate(353.8356 0) scale(0.04 -0.04)"/>
    <path d="M70 -132 L58 -107 Q77 -99 96 -86 Q115 -74 128 -50 Q141 -26 141 14 Q125 8 110 8 Q81 8 68 24 Q55 40 55 62 Q55 86 71 103 Q87 121 117 121 Q155 121 174 97 Q194 74 194 33 Q194 -9 180 -38 Q167 -67 147 -85 Q127 -103 106 -114 Q85 -125 70 -132 Z" transform="translate(373.6356 0) scale(0.04 -0.04)"/>
    <path d="M86 498 L63 511 Q120 644 244 644 Q321 644 363 605 Q405 567 405 510 Q405 458 374 426 Q344 394 297 364 L297 361 Q337 349 370 326 Q404 304 424 271 Q444 239 444 194 Q444 126 406 79 Q368 33 306 10 Q244 -13 171 -13 Q126 -13 102 -4 Q78 4 68 16 Q59 29 59 42 Q59 58 69 72 Q79 86 98 86 Q110 86 120 81 Q131 77 157 63 Q189 47 204 42 Q220 37 238 37 Q270 37 298 48 Q326 60 344 87 Q362 115 362 164 Q362 209 337 242 Q312 275 270 293 Q229 312 181 312 L161 312 L161 350 L180 350 Q214 350 246 367 Q278 384 298 415 Q319 446 319 486 Q319 530 291 554 Q264 579 217 579 Q172 579 142 558 Q112 538 86 498 Z" transform="translate(396.7689 0) scale(0.04 -0.04)"/>
    <path d="M415 646 L417 617 Q347 607 289 572 Q231 537 192 481 Q153 425 140 352 L147 351 Q178 381 208 397 Q238 413 277 413 Q359 413 408 357 Q457 301 457 203 Q457 101 405 44 Q354 -12 259 -12 Q185 -12 137 24 Q90 61 67 122 Q45 184 45 257 Q45 378 92 463 Q140 548 224 595 Q308 642 415 646 Z M370 195 Q370 263 339 309 Q309 355 247 355 Q218 355 192 343 Q167 332 151 306 Q135 280 135 236 Q135 174 149 126 Q163 78 191 50 Q220 23 263 23 Q313 23 341 61 Q370 100 370 195 Z" transform="translate(416.5689 0) scale(0.04 -0.04)"/>
    <path d="M70 -132 L58 -107 Q77 -99 96 -86 Q115 -74 128 -50 Q141 -26 141 14 Q125 8 110 8 Q81 8 68 24 Q55 40 55 62 Q55 86 71 103 Q87 121 117 121 Q155 121 174 97 Q194 74 194 33 Q194 -9 180 -38 Q167 -67 147 -85 Q127 -103 106 -114 Q85 -125 70 -132 Z" transform="translate(436.3689 0) scale(0.04 -0.04)"/>
    <path d="M415 646 L417 617 Q347 607 289 572 Q231 537 192 481 Q153 425 140 352 L147 351 Q178 381 208 397 Q238 413 277 413 Q359 413 408 357 Q457 301 457 203 Q457 101 405 44 Q354 -12 259 -12 Q185 -12 137 24 Q90 61 67 122 Q45 184 45 257 Q45 378 92 463 Q140 548 224 595 Q308 642 415 646 Z M370 195 Q370 263 339 309 Q309 355 247 355 Q218 355 192 343 Q167 332 151 306 Q135 280 135 236 Q135 174 149 126 Q163 78 191 50 Q220 23 263 23 Q313 23 341 61 Q370 100 370 195 Z" transform="translate(459.5022 0) scale(0.04 -0.04)"/>
    <path d="M468 317 Q468 253 455 194 Q443 135 416 89 Q390 43 348 16 Q306 -11 247 -11 Q187 -11 145 15 Q103 42 77 88 Q51 134 39 194 Q27 254 27 320 Q27 415 52 487 Q78 560 127 601 Q177 642 249 642 Q314 642 363 603 Q412 565 440 492 Q468 420 468 317 Z M371 311 Q371 463 339 535 Q308 608 246 608 Q187 608 155 536 Q123 464 123 315 Q123 170 155 97 Q187 25 247 25 Q306 25 338 96 Q371 167 371 311 Z" transform="translate(479.3022 0) scale(0.04 -0.04)"/>
    <path d="M70 -132 L58 -107 Q77 -99 96 -86 Q115 -74 128 -50 Q141 -26 141 14 Q125 8 110 8 Q81 8 68 24 Q55 40 55 62 Q55 86 71 103 Q87 121 117 121 Q155 121 174 97 Q194 74 194 33 Q194 -9 180 -38 Q167 -67 147 -85 Q127 -103 106 -114 Q85 -125 70 -132 Z" transform="translate(499.1022 0) scale(0.04 -0.04)"/>
    <path d="M426 0 L80 0 L80 28 Q151 28 180 43 Q209 58 209 95 L209 518 Q209 544 202 555 Q195 567 176 567 Q161 567 129 563 Q97 559 74 551 L74 584 L268 639 L297 639 L297 95 Q297 58 327 43 Q357 28 426 28 L426 0 Z" transform="translate(522.2356 0) scale(0.04 -0.04)"/>
    <path d="M468 317 Q468 253 455 194 Q443 135 416 89 Q390 43 348 16 Q306 -11 247 -11 Q187 -11 145 15 Q103 42 77 88 Q51 134 39 194 Q27 254 27 320 Q27 415 52 487 Q78 560 127 601 Q177 642 249 642 Q314 642 363 603 Q412 565 440 492 Q468 420 468 317 Z M371 311 Q371 463 339 535 Q308 608 246 608 Q187 608 155 536 Q123 464 123 315 Q123 170 155 97 Q187 25 247 25 Q306 25 338 96 Q371 167 371 311 Z" transform="translate(542.0356 0) scale(0.04 -0.04)"/>
    <path d="M468 317 Q468 253 455 194 Q443 135 416 89 Q390 43 348 16 Q306 -11 247 -11 Q187 -11 145 15 Q103 42 77 88 Q51 134 39 194 Q27 254 27 320 Q27 415 52 487 Q78 560 127 601 Q177 642 249 642 Q314 642 363 603 Q412 565 440 492 Q468 420 468 317 Z M371 311 Q371 463 339 535 Q308 608 246 608 Q187 608 155 536 Q123 464 123 315 Q123 170 155 97 Q187 25 247 25 Q306 25 338 96 Q371 167 371 311 Z" transform="translate(561.8356 0) scale(0.04 -0.04)"/>
    <path d="M70 -132 L58 -107 Q77 -99 96 -86 Q115 -74 128 -50 Q141 -26 141 14 Q125 8 110 8 Q81 8 68 24 Q55 40 55 62 Q55 86 71 103 Q87 121 117 121 Q155 121 174 97 Q194 74 194 33 Q194 -9 180 -38 Q167 -67 147 -85 Q127 -103 106 -114 Q85 -125 70 -132 Z" transform="translate(581.6356 0) scale(0.04 -0.04)"/>
    <path d="M426 0 L80 0 L80 28 Q151 28 180 43 Q209 58 209 95 L209 518 Q209 544 202 555 Q195 567 176 567 Q161 567 129 563 Q97 559 74 551 L74 584 L268 639 L297 639 L297 95 Q297 58 327 43 Q357 28 426 28 L426 0 Z" transform="translate(604.7689 0) scale(0.04 -0.04)"/>
    <path d="M417 549 L182 549 L155 435 L202 432 Q246 429 289 417 Q332 405 367 381 Q402 357 422 317 Q443 278 443 219 Q443 142 409 90 Q375 39 314 13 Q254 -13 174 -13 Q59 -13 59 43 Q59 60 69 73 Q80 86 99 86 Q119 86 138 74 Q158 62 181 49 Q204 37 236 37 Q272 37 302 51 Q333 65 351 96 Q370 127 370 179 Q370 273 314 310 Q258 347 154 352 Q135 354 127 354 Q120 354 109 354 L97 369 L159 630 L433 630 L417 549 Z" transform="translate(624.5689 0) scale(0.04 -0.04)"/>
    <path d="M468 317 Q468 253 455 194 Q443 135 416 89 Q390 43 348 16 Q306 -11 247 -11 Q187 -11 145 15 Q103 42 77 88 Q51 134 39 194 Q27 254 27 320 Q27 415 52 487 Q78 560 127 601 Q177 642 249 642 Q314 642 363 603 Q412 565 440 492 Q468 420 468 317 Z M371 311 Q371 463 339 535 Q308 608 246 608 Q187 608 155 536 Q123 464 123 315 Q123 170 155 97 Q187 25 247 25 Q306 25 338 96 Q371 167 371 311 Z" transform="translate(644.3689 0) scale(0.04 -0.04)"/>
    <path d="M70 -132 L58 -107 Q77 -99 96 -86 Q115 -74 128 -50 Q141 -26 141 14 Q125 8 110 8 Q81 8 68 24 Q55 40 55 62 Q55 86 71 103 Q87 121 117 121 Q155 121 174 97 Q194 74 194 33 Q194 -9 180 -38 Q167 -67 147 -85 Q127 -103 106 -114 Q85 -125 70 -132 Z" transform="translate(664.1689 0) scale(0.04 -0.04)"/>
    <path d="M464 160 L432 0 L38 0 L38 34 L190 186 Q240 237 273 278 Q306 320 322 362 Q339 404 339 456 Q339 512 305 545 Q272 579 214 579 Q165 579 130 558 Q96 537 68 481 L44 491 Q67 564 117 604 Q167 644 240 644 Q297 644 340 622 Q383 601 407 562 Q432 524 432 471 Q432 427 413 386 Q395 346 358 303 Q322 260 269 206 L137 81 L137 76 L207 79 L346 79 Q386 79 402 97 Q418 115 435 160 L464 160 Z" transform="translate(687.3022 0) scale(0.04 -0.04)"/>
    <path d="M464 160 L432 0 L38 0 L38 34 L190 186 Q240 237 273 278 Q306 320 322 362 Q339 404 339 456 Q339 512 305 545 Q272 579 214 579 Q165 579 130 558 Q96 537 68 481 L44 491 Q67 564 117 604 Q167 644 240 644 Q297 644 340 622 Q383 601 407 562 Q432 524 432 471 Q432 427 413 386 Q395 346 358 303 Q322 260 269 206 L137 81 L137 76 L207 79 L346 79 Q386 79 402 97 Q418 115 435 160 L464 160 Z" transform="translate(707.1022 0) scale(0.04 -0.04)"/>
    <path d="M417 549 L182 549 L155 435 L202 432 Q246 429 289 417 Q332 405 367 381 Q402 357 422 317 Q443 278 443 219 Q443 142 409 90 Q375 39 314 13 Q254 -13 174 -13 Q59 -13 59 43 Q59 60 69 73 Q80 86 99 86 Q119 86 138 74 Q158 62 181 49 Q204 37 236 37 Q272 37 302 51 Q333 65 351 96 Q370 127 370 179 Q370 273 314 310 Q258 347 154 352 Q135 354 127 354 Q120 354 109 354 L97 369 L159 630 L433 630 L417 549 Z" transform="translate(726.9022 0) scale(0.04 -0.04)"/>
    <path d="M70 -132 L58 -107 Q77 -99 96 -86 Q115 -74 128 -50 Q141 -26 141 14 Q125 8 110 8 Q81 8 68 24 Q55 40 55 62 Q55 86 71 103 Q87 121 117 121 Q155 121 174 97 Q194 74 194 33 Q194 -9 180 -38 Q167 -67 147 -85 Q127 -103 106 -114 Q85 -125 70 -132 Z" transform="translate(746.7022 0) scale(0.04 -0.04)"/>
    <path d="M86 498 L63 511 Q120 644 244 644 Q321 644 363 605 Q405 567 405 510 Q405 458 374 426 Q344 394 297 364 L297 361 Q337 349 370 326 Q404 304 424 271 Q444 239 444 194 Q444 126 406 79 Q368 33 306 10 Q244 -13 171 -13 Q126 -13 102 -4 Q78 4 68 16 Q59 29 59 42 Q59 58 69 72 Q79 86 98 86 Q110 86 120 81 Q131 77 157 63 Q189 47 204 42 Q220 37 238 37 Q270 37 298 48 Q326 60 344 87 Q362 115 362 164 Q362 209 337 242 Q312 275 270 293 Q229 312 181 312 L161 312 L161 350 L180 350 Q214 350 246 367 Q278 384 298 415 Q319 446 319 486 Q319 530 291 554 Q264 579 217 579 Q172 579 142 558 Q112 538 86 498 Z" transform="translate(769.8356 0) scale(0.04 -0.04)"/>
    <path d="M426 0 L80 0 L80 28 Q151 28 180 43 Q209 58 209 95 L209 518 Q209 544 202 555 Q195 567 176 567 Q161 567 129 563 Q97 559 74 551 L74 584 L268 639 L297 639 L297 95 Q297 58 327 43 Q357 28 426 28 L426 0 Z" transform="translate(789.6356 0) scale(0.04 -0.04)"/>
    <path d="M417 549 L182 549 L155 435 L202 432 Q246 429 289 417 Q332 405 367 381 Q402 357 422 317 Q443 278 443 219 Q443 142 409 90 Q375 39 314 13 Q254 -13 174 -13 Q59 -13 59 43 Q59 60 69 73 Q80 86 99 86 Q119 86 138 74 Q158 62 181 49 Q204 37 236 37 Q272 37 302 51 Q333 65 351 96 Q370 127 370 179 Q370 273 314 310 Q258 347 154 352 Q135 354 127 354 Q120 354 109 354 L97 369 L159 630 L433 630 L417 549 Z" transform="translate(809.4356 0) scale(0.04 -0.04)"/>
  </g>
</svg>