<svg xmlns="http://www.w3.org/2000/svg" viewBox="-8.594 -68.586 1613.401 124.032" width="1613.401" height="124.032" role="img" aria-label="a = ( + + + + + - - + + - + - + ) , C sub a ( t ) ∈ { 0 , 1 } ( 1 ≤ t ≤ 1 2 ) , F = the fraction 1 3 squared over 2 the sum from t of C sub a ( t ) squared = the fraction 1 6 9 over 1 2 ≈ 1 4 . 0 8"><rect x="-8.594" y="-68.586" width="1613.401" height="124.032" fill="#ffffff"/>
  <g fill="#1d1b18">
    <path d="M502 472 L430 118 Q430 118 427 105 Q425 92 425 81 Q425 71 429 65 Q433 60 445 60 Q461 60 475 69 Q490 79 501 91 Q513 104 519 112 L539 97 Q508 49 474 19 Q440 -10 395 -10 Q339 -10 339 38 Q339 49 341 60 Q344 72 346 85 L339 85 Q260 -12 172 -12 Q118 -12 83 30 Q49 72 49 159 Q49 227 70 285 Q92 344 128 387 Q164 431 210 455 Q256 479 305 479 Q345 479 369 464 Q393 449 409 426 L413 426 L449 472 L502 472 Z M389 344 Q389 384 366 412 Q344 441 302 441 Q265 441 234 417 Q204 394 182 355 Q161 316 149 267 Q138 219 138 169 Q138 100 159 77 Q181 54 218 54 Q268 54 302 85 Q336 117 358 181 Q368 211 375 242 Q382 274 385 301 Q389 329 389 344 Z" transform="translate(0 0) scale(0.04 -0.04)"/>
    <path d="M658 327 L62 327 L62 395 L658 395 L658 327 Z M658 123 L62 123 L62 190 L658 190 L658 123 Z" transform="translate(33.3111 0) scale(0.04 -0.04)"/>
    <path d="M45 270 Q45 437 117 555 Q190 673 311 736 L327 710 Q218 636 172 529 Q127 423 127 270 Q127 117 172 10 Q218 -96 327 -170 L311 -196 Q190 -133 117 -15 Q45 103 45 270 Z" transform="translate(73.2222 0) scale(0.04 -0.04)"/>
    <path d="M658 225 L396 225 L396 -40 L324 -40 L324 225 L62 225 L62 293 L324 293 L324 558 L396 558 L396 293 L658 293 L658 225 Z" transform="translate(87.5022 0) scale(0.04 -0.04)"/>
    <path d="M658 225 L396 225 L396 -40 L324 -40 L324 225 L62 225 L62 293 L324 293 L324 558 L396 558 L396 293 L658 293 L658 225 Z" transform="translate(116.3022 0) scale(0.04 -0.04)"/>
    <path d="M658 225 L396 225 L396 -40 L324 -40 L324 225 L62 225 L62 293 L324 293 L324 558 L396 558 L396 293 L658 293 L658 225 Z" transform="translate(145.1022 0) scale(0.04 -0.04)"/>
    <path d="M658 225 L396 225 L396 -40 L324 -40 L324 225 L62 225 L62 293 L324 293 L324 558 L396 558 L396 293 L658 293 L658 225 Z" transform="translate(173.9022 0) scale(0.04 -0.04)"/>
    <path d="M658 225 L396 225 L396 -40 L324 -40 L324 225 L62 225 L62 293 L324 293 L324 558 L396 558 L396 293 L658 293 L658 225 Z" transform="translate(202.7022 0) scale(0.04 -0.04)"/>
    <path d="M658 225 L62 225 L62 293 L658 293 L658 225 Z" transform="translate(231.5022 0) scale(0.04 -0.04)"/>
    <path d="M658 225 L62 225 L62 293 L658 293 L658 225 Z" transform="translate(260.3022 0) scale(0.04 -0.04)"/>
    <path d="M658 225 L396 225 L396 -40 L324 -40 L324 225 L62 225 L62 293 L324 293 L324 558 L396 558 L396 293 L658 293 L658 225 Z" transform="translate(289.1022 0) scale(0.04 -0.04)"/>
    <path d="M658 225 L396 225 L396 -40 L324 -40 L324 225 L62 225 L62 293 L324 293 L324 558 L396 558 L396 293 L658 293 L658 225 Z" transform="translate(317.9022 0) scale(0.04 -0.04)"/>
    <path d="M658 225 L62 225 L62 293 L658 293 L658 225 Z" transform="translate(346.7022 0) scale(0.04 -0.04)"/>
    <path d="M658 225 L396 225 L396 -40 L324 -40 L324 225 L62 225 L62 293 L324 293 L324 558 L396 558 L396 293 L658 293 L658 225 Z" transform="translate(375.5022 0) scale(0.04 -0.04)"/>
    <path d="M658 225 L62 225 L62 293 L658 293 L658 225 Z" transform="translate(404.3022 0) scale(0.04 -0.04)"/>
    <path d="M658 225 L396 225 L396 -40 L324 -40 L324 225 L62 225 L62 293 L324 293 L324 558 L396 558 L396 293 L658 293 L658 225 Z" transform="translate(433.1022 0) scale(0.04 -0.04)"/>
    <path d="M312 270 Q312 103 239 -15 Q167 -133 46 -196 L30 -170 Q140 -96 185 10 Q230 117 230 270 Q230 423 185 529 Q140 636 30 710 L46 736 Q167 673 239 555 Q312 437 312 270 Z" transform="translate(461.9022 0) scale(0.04 -0.04)"/>
    <path d="M70 -132 L58 -107 Q77 -99 96 -86 Q115 -74 128 -50 Q141 -26 141 14 Q125 8 110 8 Q81 8 68 24 Q55 40 55 62 Q55 86 71 103 Q87 121 117 121 Q155 121 174 97 Q194 74 194 33 Q194 -9 180 -38 Q167 -67 147 -85 Q127 -103 106 -114 Q85 -125 70 -132 Z" transform="translate(476.1822 0) scale(0.04 -0.04)"/>
    <path d="M567 145 L585 126 Q534 66 467 27 Q400 -11 305 -11 Q215 -11 161 22 Q107 56 83 112 Q60 168 60 234 Q60 339 92 420 Q124 502 179 557 Q235 613 305 641 Q375 670 451 670 Q502 670 530 661 Q559 652 575 642 Q591 633 603 633 Q615 633 624 643 Q633 653 645 669 L674 669 L627 440 L594 440 Q598 540 557 583 Q516 627 442 627 Q384 627 333 600 Q282 574 242 525 Q203 477 180 409 Q158 342 158 259 Q158 159 205 106 Q253 54 352 54 Q467 54 567 145 Z" transform="translate(565.9822 0) scale(0.04 -0.04)"/>
    <path d="M502 472 L430 118 Q430 118 427 105 Q425 92 425 81 Q425 71 429 65 Q433 60 445 60 Q461 60 475 69 Q490 79 501 91 Q513 104 519 112 L539 97 Q508 49 474 19 Q440 -10 395 -10 Q339 -10 339 38 Q339 49 341 60 Q344 72 346 85 L339 85 Q260 -12 172 -12 Q118 -12 83 30 Q49 72 49 159 Q49 227 70 285 Q92 344 128 387 Q164 431 210 455 Q256 479 305 479 Q345 479 369 464 Q393 449 409 426 L413 426 L449 472 L502 472 Z M389 344 Q389 384 366 412 Q344 441 302 441 Q265 441 234 417 Q204 394 182 355 Q161 316 149 267 Q138 219 138 169 Q138 100 159 77 Q181 54 218 54 Q268 54 302 85 Q336 117 358 181 Q368 211 375 242 Q382 274 385 301 Q389 329 389 344 Z" transform="translate(590.9422 8.4) scale(0.028 -0.028)"/>
    <path d="M45 270 Q45 437 117 555 Q190 673 311 736 L327 710 Q218 636 172 529 Q127 423 127 270 Q127 117 172 10 Q218 -96 327 -170 L311 -196 Q190 -133 117 -15 Q45 103 45 270 Z" transform="translate(608.0822 0) scale(0.04 -0.04)"/>
    <path d="M317 467 L309 428 L208 428 L149 130 Q149 130 145 111 Q142 93 142 80 Q142 72 145 65 Q149 59 159 59 Q181 59 199 72 Q218 85 244 119 L264 104 Q250 85 230 58 Q210 31 182 11 Q154 -9 114 -9 Q83 -9 68 6 Q53 21 53 44 Q53 57 56 75 Q59 94 60 101 L128 428 L71 428 L75 449 Q107 466 128 482 Q150 498 169 524 Q189 550 214 593 L244 593 L216 467 L317 467 Z" transform="translate(622.3622 0) scale(0.04 -0.04)"/>
    <path d="M312 270 Q312 103 239 -15 Q167 -133 46 -196 L30 -170 Q140 -96 185 10 Q230 117 230 270 Q230 423 185 529 Q140 636 30 710 L46 736 Q167 673 239 555 Q312 437 312 270 Z" transform="translate(635.8822 0) scale(0.04 -0.04)"/>
    <path d="M646 293 L646 225 L155 225 Q160 177 182 135 Q205 93 247 67 Q289 42 353 42 L646 42 L646 -26 L344 -26 Q263 -26 202 14 Q142 54 108 119 Q75 184 75 260 Q75 336 109 400 Q143 464 204 503 Q265 543 347 543 L646 543 L646 476 L352 476 Q287 476 245 450 Q204 425 182 383 Q160 341 155 293 L646 293 Z" transform="translate(661.2733 0) scale(0.04 -0.04)"/>
    <path d="M25 245 L25 295 Q49 298 69 303 Q90 308 102 322 Q115 337 115 367 Q115 385 112 413 Q109 441 105 474 Q102 507 99 538 Q96 569 96 591 Q96 649 122 680 Q148 711 190 723 Q233 736 282 736 L282 704 Q254 704 228 696 Q202 689 186 667 Q170 646 170 603 Q170 578 174 544 Q178 511 181 476 Q185 442 185 411 Q185 349 158 318 Q131 288 93 273 L93 267 Q131 252 158 221 Q185 191 185 129 Q185 99 181 63 Q178 28 174 -5 Q170 -38 170 -64 Q170 -107 186 -128 Q202 -150 228 -157 Q254 -165 282 -165 L282 -197 Q233 -197 190 -184 Q148 -172 122 -140 Q96 -109 96 -52 Q96 -29 99 2 Q102 33 105 65 Q109 98 112 126 Q115 155 115 173 Q115 203 102 217 Q90 232 69 237 Q49 243 25 245 Z" transform="translate(701.1844 0) scale(0.04 -0.04)"/>
    <path d="M468 317 Q468 253 455 194 Q443 135 416 89 Q390 43 348 16 Q306 -11 247 -11 Q187 -11 145 15 Q103 42 77 88 Q51 134 39 194 Q27 254 27 320 Q27 415 52 487 Q78 560 127 601 Q177 642 249 642 Q314 642 363 603 Q412 565 440 492 Q468 420 468 317 Z M371 311 Q371 463 339 535 Q308 608 246 608 Q187 608 155 536 Q123 464 123 315 Q123 170 155 97 Q187 25 247 25 Q306 25 338 96 Q371 167 371 311 Z" transform="translate(714.2644 0) scale(0.04 -0.04)"/>
    <path d="M70 -132 L58 -107 Q77 -99 96 -86 Q115 -74 128 -50 Q141 -26 141 14 Q125 8 110 8 Q81 8 68 24 Q55 40 55 62 Q55 86 71 103 Q87 121 117 121 Q155 121 174 97 Q194 74 194 33 Q194 -9 180 -38 Q167 -67 147 -85 Q127 -103 106 -114 Q85 -125 70 -132 Z" transform="translate(734.0644 0) scale(0.04 -0.04)"/>
    <path d="M426 0 L80 0 L80 28 Q151 28 180 43 Q209 58 209 95 L209 518 Q209 544 202 555 Q195 567 176 567 Q161 567 129 563 Q97 559 74 551 L74 584 L268 639 L297 639 L297 95 Q297 58 327 43 Q357 28 426 28 L426 0 Z" transform="translate(750.5311 0) scale(0.04 -0.04)"/>
    <path d="M302 295 L302 245 Q279 243 258 237 Q237 232 224 217 Q212 203 212 173 Q212 155 215 126 Q218 98 221 65 Q225 33 228 2 Q231 -29 231 -52 Q231 -109 205 -140 Q179 -172 136 -184 Q94 -197 45 -197 L45 -165 Q74 -165 99 -157 Q125 -150 141 -128 Q157 -107 157 -64 Q157 -38 153 -5 Q150 28 146 63 Q142 99 142 129 Q142 191 169 221 Q196 252 234 267 L234 273 Q196 288 169 318 Q142 349 142 411 Q142 442 146 476 Q150 511 153 544 Q157 578 157 603 Q157 646 141 667 Q125 689 99 696 Q74 704 45 704 L45 736 Q94 736 136 723 Q179 711 205 680 Q231 649 231 591 Q231 569 228 538 Q225 507 221 474 Q218 441 215 413 Q212 385 212 367 Q212 337 224 322 Q237 308 258 303 Q279 298 302 295 Z" transform="translate(770.3311 0) scale(0.04 -0.04)"/>
    <path d="M45 270 Q45 437 117 555 Q190 673 311 736 L327 710 Q218 636 172 529 Q127 423 127 270 Q127 117 172 10 Q218 -96 327 -170 L311 -196 Q190 -133 117 -15 Q45 103 45 270 Z" transform="translate(796.7444 0) scale(0.04 -0.04)"/>
    <path d="M426 0 L80 0 L80 28 Q151 28 180 43 Q209 58 209 95 L209 518 Q209 544 202 555 Q195 567 176 567 Q161 567 129 563 Q97 559 74 551 L74 584 L268 639 L297 639 L297 95 Q297 58 327 43 Q357 28 426 28 L426 0 Z" transform="translate(811.0244 0) scale(0.04 -0.04)"/>
    <path d="M650 52 L71 332 L71 342 L650 623 L650 557 L207 337 L650 116 L650 52 Z M650 -106 L71 -106 L71 -38 L650 -38 L650 -106 Z" transform="translate(841.9356 0) scale(0.04 -0.04)"/>
    <path d="M317 467 L309 428 L208 428 L149 130 Q149 130 145 111 Q142 93 142 80 Q142 72 145 65 Q149 59 159 59 Q181 59 199 72 Q218 85 244 119 L264 104 Q250 85 230 58 Q210 31 182 11 Q154 -9 114 -9 Q83 -9 68 6 Q53 21 53 44 Q53 57 56 75 Q59 94 60 101 L128 428 L71 428 L75 449 Q107 466 128 482 Q150 498 169 524 Q189 550 214 593 L244 593 L216 467 L317 467 Z" transform="translate(881.8467 0) scale(0.04 -0.04)"/>
    <path d="M650 52 L71 332 L71 342 L650 623 L650 557 L207 337 L650 116 L650 52 Z M650 -106 L71 -106 L71 -38 L650 -38 L650 -106 Z" transform="translate(906.4778 0) scale(0.04 -0.04)"/>
    <path d="M426 0 L80 0 L80 28 Q151 28 180 43 Q209 58 209 95 L209 518 Q209 544 202 555 Q195 567 176 567 Q161 567 129 563 Q97 559 74 551 L74 584 L268 639 L297 639 L297 95 Q297 58 327 43 Q357 28 426 28 L426 0 Z" transform="translate(946.3889 0) scale(0.04 -0.04)"/>
    <path d="M464 160 L432 0 L38 0 L38 34 L190 186 Q240 237 273 278 Q306 320 322 362 Q339 404 339 456 Q339 512 305 545 Q272 579 214 579 Q165 579 130 558 Q96 537 68 481 L44 491 Q67 564 117 604 Q167 644 240 644 Q297 644 340 622 Q383 601 407 562 Q432 524 432 471 Q432 427 413 386 Q395 346 358 303 Q322 260 269 206 L137 81 L137 76 L207 79 L346 79 Q386 79 402 97 Q418 115 435 160 L464 160 Z" transform="translate(966.1889 0) scale(0.04 -0.04)"/>
    <path d="M312 270 Q312 103 239 -15 Q167 -133 46 -196 L30 -170 Q140 -96 185 10 Q230 117 230 270 Q230 423 185 529 Q140 636 30 710 L46 736 Q167 673 239 555 Q312 437 312 270 Z" transform="translate(985.9889 0) scale(0.04 -0.04)"/>
    <path d="M70 -132 L58 -107 Q77 -99 96 -86 Q115 -74 128 -50 Q141 -26 141 14 Q125 8 110 8 Q81 8 68 24 Q55 40 55 62 Q55 86 71 103 Q87 121 117 121 Q155 121 174 97 Q194 74 194 33 Q194 -9 180 -38 Q167 -67 147 -85 Q127 -103 106 -114 Q85 -125 70 -132 Z" transform="translate(1000.2689 0) scale(0.04 -0.04)"/>
    <path d="M607 494 L577 494 Q578 542 571 569 Q565 596 537 607 Q509 618 444 618 L294 618 L240 358 L351 358 Q394 358 417 366 Q441 374 453 395 Q466 417 474 457 L506 457 L460 224 L427 224 Q435 267 431 287 Q427 307 405 313 Q384 320 341 320 L233 320 L190 106 Q188 96 187 87 Q186 79 186 72 Q186 46 210 38 Q234 30 280 30 L275 0 L-13 0 L-7 30 Q28 30 48 36 Q69 42 81 60 Q94 79 101 116 L190 544 Q197 579 194 596 Q191 614 172 620 Q153 627 112 627 L118 657 L634 657 L607 494 Z" transform="translate(1090.0689 0) scale(0.04 -0.04)"/>
    <path d="M658 327 L62 327 L62 395 L658 395 L658 327 Z M658 123 L62 123 L62 190 L658 190 L658 123 Z" transform="translate(1124.5 0) scale(0.04 -0.04)"/>
    <path d="M426 0 L80 0 L80 28 Q151 28 180 43 Q209 58 209 95 L209 518 Q209 544 202 555 Q195 567 176 567 Q161 567 129 563 Q97 559 74 551 L74 584 L268 639 L297 639 L297 95 Q297 58 327 43 Q357 28 426 28 L426 0 Z" transform="translate(1227.9198 -25.6) scale(0.04 -0.04)"/>
    <path d="M86 498 L63 511 Q120 644 244 644 Q321 644 363 605 Q405 567 405 510 Q405 458 374 426 Q344 394 297 364 L297 361 Q337 349 370 326 Q404 304 424 271 Q444 239 444 194 Q444 126 406 79 Q368 33 306 10 Q244 -13 171 -13 Q126 -13 102 -4 Q78 4 68 16 Q59 29 59 42 Q59 58 69 72 Q79 86 98 86 Q110 86 120 81 Q131 77 157 63 Q189 47 204 42 Q220 37 238 37 Q270 37 298 48 Q326 60 344 87 Q362 115 362 164 Q362 209 337 242 Q312 275 270 293 Q229 312 181 312 L161 312 L161 350 L180 350 Q214 350 246 367 Q278 384 298 415 Q319 446 319 486 Q319 530 291 554 Q264 579 217 579 Q172 579 142 558 Q112 538 86 498 Z" transform="translate(1247.7198 -25.6) scale(0.04 -0.04)"/>
    <path d="M464 160 L432 0 L38 0 L38 34 L190 186 Q240 237 273 278 Q306 320 322 362 Q339 404 339 456 Q339 512 305 545 Q272 579 214 579 Q165 579 130 558 Q96 537 68 481 L44 491 Q67 564 117 604 Q167 644 240 644 Q297 644 340 622 Q383 601 407 562 Q432 524 432 471 Q432 427 413 386 Q395 346 358 303 Q322 260 269 206 L137 81 L137 76 L207 79 L346 79 Q386 79 402 97 Q418 115 435 160 L464 160 Z" transform="translate(1266.7198 -40) scale(0.028 -0.028)"/>
    <path d="M464 160 L432 0 L38 0 L38 34 L190 186 Q240 237 273 278 Q306 320 322 362 Q339 404 339 456 Q339 512 305 545 Q272 579 214 579 Q165 579 130 558 Q96 537 68 481 L44 491 Q67 564 117 604 Q167 644 240 644 Q297 644 340 622 Q383 601 407 562 Q432 524 432 471 Q432 427 413 386 Q395 346 358 303 Q322 260 269 206 L137 81 L137 76 L207 79 L346 79 Q386 79 402 97 Q418 115 435 160 L464 160 Z" transform="translate(1164.4111 27.96) scale(0.04 -0.04)"/>
    <path d="M861 70 L800 -248 L62 -248 L62 -224 L449 282 L69 758 L69 782 L817 782 L828 532 L789 532 Q778 616 751 658 Q724 700 678 714 Q633 729 566 729 L237 729 L237 725 L545 334 L545 315 L196 -145 L196 -150 L621 -150 Q684 -150 720 -123 Q756 -97 778 -47 Q801 2 821 70 L861 70 Z" transform="translate(1190.8778 28.32) scale(0.04 -0.04)"/>
    <path d="M317 467 L309 428 L208 428 L149 130 Q149 130 145 111 Q142 93 142 80 Q142 72 145 65 Q149 59 159 59 Q181 59 199 72 Q218 85 244 119 L264 104 Q250 85 230 58 Q210 31 182 11 Q154 -9 114 -9 Q83 -9 68 6 Q53 21 53 44 Q53 57 56 75 Q59 94 60 101 L128 428 L71 428 L75 449 Q107 466 128 482 Q150 498 169 524 Q189 550 214 593 L244 593 L216 467 L317 467 Z" transform="translate(1228.3178 44.64) scale(0.028 -0.028)"/>
    <path d="M567 145 L585 126 Q534 66 467 27 Q400 -11 305 -11 Q215 -11 161 22 Q107 56 83 112 Q60 168 60 234 Q60 339 92 420 Q124 502 179 557 Q235 613 305 641 Q375 670 451 670 Q502 670 530 661 Q559 652 575 642 Q591 633 603 633 Q615 633 624 643 Q633 653 645 669 L674 669 L627 440 L594 440 Q598 540 557 583 Q516 627 442 627 Q384 627 333 600 Q282 574 242 525 Q203 477 180 409 Q158 342 158 259 Q158 159 205 106 Q253 54 352 54 Q467 54 567 145 Z" transform="translate(1246.0484 27.96) scale(0.04 -0.04)"/>
    <path d="M502 472 L430 118 Q430 118 427 105 Q425 92 425 81 Q425 71 429 65 Q433 60 445 60 Q461 60 475 69 Q490 79 501 91 Q513 104 519 112 L539 97 Q508 49 474 19 Q440 -10 395 -10 Q339 -10 339 38 Q339 49 341 60 Q344 72 346 85 L339 85 Q260 -12 172 -12 Q118 -12 83 30 Q49 72 49 159 Q49 227 70 285 Q92 344 128 387 Q164 431 210 455 Q256 479 305 479 Q345 479 369 464 Q393 449 409 426 L413 426 L449 472 L502 472 Z M389 344 Q389 384 366 412 Q344 441 302 441 Q265 441 234 417 Q204 394 182 355 Q161 316 149 267 Q138 219 138 169 Q138 100 159 77 Q181 54 218 54 Q268 54 302 85 Q336 117 358 181 Q368 211 375 242 Q382 274 385 301 Q389 329 389 344 Z" transform="translate(1271.0084 36.36) scale(0.028 -0.028)"/>
    <path d="M45 270 Q45 437 117 555 Q190 673 311 736 L327 710 Q218 636 172 529 Q127 423 127 270 Q127 117 172 10 Q218 -96 327 -170 L311 -196 Q190 -133 117 -15 Q45 103 45 270 Z" transform="translate(1288.1484 27.96) scale(0.04 -0.04)"/>
    <path d="M317 467 L309 428 L208 428 L149 130 Q149 130 145 111 Q142 93 142 80 Q142 72 145 65 Q149 59 159 59 Q181 59 199 72 Q218 85 244 119 L264 104 Q250 85 230 58 Q210 31 182 11 Q154 -9 114 -9 Q83 -9 68 6 Q53 21 53 44 Q53 57 56 75 Q59 94 60 101 L128 428 L71 428 L75 449 Q107 466 128 482 Q150 498 169 524 Q189 550 214 593 L244 593 L216 467 L317 467 Z" transform="translate(1302.4284 27.96) scale(0.04 -0.04)"/>
    <path d="M312 270 Q312 103 239 -15 Q167 -133 46 -196 L30 -170 Q140 -96 185 10 Q230 117 230 270 Q230 423 185 529 Q140 636 30 710 L46 736 Q167 673 239 555 Q312 437 312 270 Z" transform="translate(1315.9484 27.96) scale(0.04 -0.04)"/>
    <path d="M464 160 L432 0 L38 0 L38 34 L190 186 Q240 237 273 278 Q306 320 322 362 Q339 404 339 456 Q339 512 305 545 Q272 579 214 579 Q165 579 130 558 Q96 537 68 481 L44 491 Q67 564 117 604 Q167 644 240 644 Q297 644 340 622 Q383 601 407 562 Q432 524 432 471 Q432 427 413 386 Q395 346 358 303 Q322 260 269 206 L137 81 L137 76 L207 79 L346 79 Q386 79 402 97 Q418 115 435 160 L464 160 Z" transform="translate(1330.2284 17.88) scale(0.028 -0.028)"/>
    <path d="M658 327 L62 327 L62 395 L658 395 L658 327 Z M658 123 L62 123 L62 190 L658 190 L658 123 Z" transform="translate(1356.7996 0) scale(0.04 -0.04)"/>
    <path d="M426 0 L80 0 L80 28 Q151 28 180 43 Q209 58 209 95 L209 518 Q209 544 202 555 Q195 567 176 567 Q161 567 129 563 Q97 559 74 551 L74 584 L268 639 L297 639 L297 95 Q297 58 327 43 Q357 28 426 28 L426 0 Z" transform="translate(1396.7107 -25.6) scale(0.04 -0.04)"/>
    <path d="M415 646 L417 617 Q347 607 289 572 Q231 537 192 481 Q153 425 140 352 L147 351 Q178 381 208 397 Q238 413 277 413 Q359 413 408 357 Q457 301 457 203 Q457 101 405 44 Q354 -12 259 -12 Q185 -12 137 24 Q90 61 67 122 Q45 184 45 257 Q45 378 92 463 Q140 548 224 595 Q308 642 415 646 Z M370 195 Q370 263 339 309 Q309 355 247 355 Q218 355 192 343 Q167 332 151 306 Q135 280 135 236 Q135 174 149 126 Q163 78 191 50 Q220 23 263 23 Q313 23 341 61 Q370 100 370 195 Z" transform="translate(1416.5107 -25.6) scale(0.04 -0.04)"/>
    <path d="M85 -13 L83 16 Q152 24 210 56 Q268 89 306 145 Q345 202 356 283 L350 284 Q316 253 286 237 Q257 222 219 222 Q137 222 88 277 Q39 333 39 432 Q39 533 92 589 Q146 646 240 646 Q315 646 361 609 Q407 572 428 510 Q450 448 450 374 Q450 245 405 159 Q360 74 278 31 Q196 -12 85 -13 Z M126 438 Q126 368 156 324 Q187 281 249 281 Q293 281 326 307 Q360 334 360 398 Q360 461 347 509 Q335 557 307 584 Q280 612 236 612 Q187 612 156 573 Q126 534 126 438 Z" transform="translate(1436.3107 -25.6) scale(0.04 -0.04)"/>
    <path d="M426 0 L80 0 L80 28 Q151 28 180 43 Q209 58 209 95 L209 518 Q209 544 202 555 Q195 567 176 567 Q161 567 129 563 Q97 559 74 551 L74 584 L268 639 L297 639 L297 95 Q297 58 327 43 Q357 28 426 28 L426 0 Z" transform="translate(1406.6107 25.6) scale(0.04 -0.04)"/>
    <path d="M464 160 L432 0 L38 0 L38 34 L190 186 Q240 237 273 278 Q306 320 322 362 Q339 404 339 456 Q339 512 305 545 Q272 579 214 579 Q165 579 130 558 Q96 537 68 481 L44 491 Q67 564 117 604 Q167 644 240 644 Q297 644 340 622 Q383 601 407 562 Q432 524 432 471 Q432 427 413 386 Q395 346 358 303 Q322 260 269 206 L137 81 L137 76 L207 79 L346 79 Q386 79 402 97 Q418 115 435 160 L464 160 Z" transform="translate(1426.4107 25.6) scale(0.04 -0.04)"/>
    <path d="M628 486 L662 486 Q660 453 648 417 Q637 381 616 349 Q596 317 567 297 Q538 277 500 277 Q463 277 425 297 Q387 317 350 342 Q313 368 279 388 Q246 408 219 408 Q183 408 158 388 Q133 368 117 336 Q101 304 93 267 L59 267 Q62 318 82 366 Q103 414 139 445 Q176 476 226 476 Q263 476 301 456 Q339 436 376 410 Q413 385 446 365 Q480 345 508 345 Q544 345 567 365 Q591 385 606 417 Q621 450 628 486 Z M628 244 L662 244 Q660 211 648 175 Q637 139 616 107 Q596 76 567 56 Q538 36 500 36 Q463 36 425 56 Q387 76 350 101 Q313 127 279 147 Q246 167 219 167 Q183 167 158 146 Q133 126 117 94 Q101 62 93 25 L59 25 Q62 77 82 124 Q103 172 139 203 Q176 234 226 234 Q263 234 301 214 Q339 194 376 168 Q413 143 446 123 Q480 103 508 103 Q544 103 567 123 Q591 143 606 175 Q621 208 628 244 Z" transform="translate(1467.2218 0) scale(0.04 -0.04)"/>
    <path d="M426 0 L80 0 L80 28 Q151 28 180 43 Q209 58 209 95 L209 518 Q209 544 202 555 Q195 567 176 567 Q161 567 129 563 Q97 559 74 551 L74 584 L268 639 L297 639 L297 95 Q297 58 327 43 Q357 28 426 28 L426 0 Z" transform="translate(1507.1329 0) scale(0.04 -0.04)"/>
    <path d="M481 158 L379 158 L379 0 L290 0 L290 158 L13 158 L13 221 L318 645 L379 645 L379 227 L481 227 L481 158 Z M290 227 L290 536 L286 536 L68 231 L68 227 L290 227 Z" transform="translate(1526.9329 0) scale(0.04 -0.04)"/>
    <path d="M183 50 Q183 27 167 9 Q151 -8 121 -8 Q91 -8 76 9 Q62 26 62 51 Q62 77 78 95 Q94 114 122 114 Q151 114 167 95 Q183 76 183 50 Z" transform="translate(1546.7329 0) scale(0.04 -0.04)"/>
    <path d="M468 317 Q468 253 455 194 Q443 135 416 89 Q390 43 348 16 Q306 -11 247 -11 Q187 -11 145 15 Q103 42 77 88 Q51 134 39 194 Q27 254 27 320 Q27 415 52 487 Q78 560 127 601 Q177 642 249 642 Q314 642 363 603 Q412 565 440 492 Q468 420 468 317 Z M371 311 Q371 463 339 535 Q308 608 246 608 Q187 608 155 536 Q123 464 123 315 Q123 170 155 97 Q187 25 247 25 Q306 25 338 96 Q371 167 371 311 Z" transform="translate(1556.5329 0) scale(0.04 -0.04)"/>
    <path d="M448 150 Q448 71 391 29 Q335 -12 246 -12 Q159 -12 102 27 Q46 66 46 142 Q46 182 61 209 Q76 237 106 261 Q137 285 183 316 L183 319 Q132 355 105 382 Q79 410 69 437 Q59 465 59 499 Q59 545 83 578 Q108 611 151 629 Q194 647 249 647 Q299 647 338 629 Q378 611 401 580 Q424 549 424 509 Q424 473 411 447 Q398 421 370 399 Q342 378 295 352 L295 349 Q354 314 387 283 Q420 253 434 221 Q448 190 448 150 Z M213 300 Q170 266 147 234 Q124 202 124 150 Q124 83 158 51 Q193 19 250 19 Q297 19 330 44 Q364 70 364 121 Q364 153 351 179 Q339 205 306 233 Q274 261 213 300 Z M350 511 Q350 561 322 587 Q295 614 247 614 Q196 614 166 588 Q137 563 137 517 Q137 473 167 441 Q197 409 264 368 Q314 398 332 430 Q350 463 350 511 Z" transform="translate(1576.3329 0) scale(0.04 -0.04)"/>
    <rect x="1164.4111" y="-11.68" width="181.2773" height="2.72"/>
    <rect x="1396.7107" y="-11.68" width="59.4" height="2.72"/>
  </g>
</svg>