<svg xmlns="http://www.w3.org/2000/svg" viewBox="-6.771 -66.571 644.138 108.622" width="644.138" height="108.622" role="img" aria-label="open paren 8 6 choose 0 close paren + open paren 8 6 choose 1 close paren + open paren 8 6 choose 2 close paren + open paren 8 6 choose 3 close paren = 1 0 6 , 0 8 2"><rect x="-6.771" y="-66.571" width="644.138" height="108.622" fill="#ffffff"/>
  <g fill="#1d1b18">
    <path d="M68 270 Q68 450 94 612 Q121 775 168 913 Q215 1052 278 1161 Q342 1270 416 1342 L441 1319 Q349 1201 288 1037 Q227 874 196 679 Q166 484 166 270 Q166 57 196 -138 Q227 -334 288 -497 Q349 -661 441 -779 L416 -802 Q342 -730 278 -621 Q215 -512 168 -373 Q121 -235 94 -72 Q68 90 68 270 Z" transform="translate(0 0.48) scale(0.04 -0.04)"/>
    <path d="M448 150 Q448 71 391 29 Q335 -12 246 -12 Q159 -12 102 27 Q46 66 46 142 Q46 182 61 209 Q76 237 106 261 Q137 285 183 316 L183 319 Q132 355 105 382 Q79 410 69 437 Q59 465 59 499 Q59 545 83 578 Q108 611 151 629 Q194 647 249 647 Q299 647 338 629 Q378 611 401 580 Q424 549 424 509 Q424 473 411 447 Q398 421 370 399 Q342 378 295 352 L295 349 Q354 314 387 283 Q420 253 434 221 Q448 190 448 150 Z M213 300 Q170 266 147 234 Q124 202 124 150 Q124 83 158 51 Q193 19 250 19 Q297 19 330 44 Q364 70 364 121 Q364 153 351 179 Q339 205 306 233 Q274 261 213 300 Z M350 511 Q350 561 322 587 Q295 614 247 614 Q196 614 166 588 Q137 563 137 517 Q137 473 167 441 Q197 409 264 368 Q314 398 332 430 Q350 463 350 511 Z" transform="translate(18.92 -31.2) scale(0.04 -0.04)"/>
    <path d="M415 646 L417 617 Q347 607 289 572 Q231 537 192 481 Q153 425 140 352 L147 351 Q178 381 208 397 Q238 413 277 413 Q359 413 408 357 Q457 301 457 203 Q457 101 405 44 Q354 -12 259 -12 Q185 -12 137 24 Q90 61 67 122 Q45 184 45 257 Q45 378 92 463 Q140 548 224 595 Q308 642 415 646 Z M370 195 Q370 263 339 309 Q309 355 247 355 Q218 355 192 343 Q167 332 151 306 Q135 280 135 236 Q135 174 149 126 Q163 78 191 50 Q220 23 263 23 Q313 23 341 61 Q370 100 370 195 Z" transform="translate(38.72 -31.2) scale(0.04 -0.04)"/>
    <path d="M468 317 Q468 253 455 194 Q443 135 416 89 Q390 43 348 16 Q306 -11 247 -11 Q187 -11 145 15 Q103 42 77 88 Q51 134 39 194 Q27 254 27 320 Q27 415 52 487 Q78 560 127 601 Q177 642 249 642 Q314 642 363 603 Q412 565 440 492 Q468 420 468 317 Z M371 311 Q371 463 339 535 Q308 608 246 608 Q187 608 155 536 Q123 464 123 315 Q123 170 155 97 Q187 25 247 25 Q306 25 338 96 Q371 167 371 311 Z" transform="translate(28.82 27.6) scale(0.04 -0.04)"/>
    <path d="M405 270 Q405 90 378 -72 Q352 -235 305 -373 Q258 -512 194 -621 Q131 -730 57 -802 L32 -779 Q124 -661 185 -497 Q246 -334 276 -138 Q307 57 307 270 Q307 484 276 679 Q246 874 185 1037 Q124 1201 32 1319 L57 1342 Q131 1270 194 1161 Q258 1052 305 913 Q352 775 378 612 Q405 450 405 270 Z" transform="translate(58.52 0.48) scale(0.04 -0.04)"/>
    <path d="M658 225 L396 225 L396 -40 L324 -40 L324 225 L62 225 L62 293 L324 293 L324 558 L396 558 L396 293 L658 293 L658 225 Z" transform="translate(86.3289 0) scale(0.04 -0.04)"/>
    <path d="M68 270 Q68 450 94 612 Q121 775 168 913 Q215 1052 278 1161 Q342 1270 416 1342 L441 1319 Q349 1201 288 1037 Q227 874 196 679 Q166 484 166 270 Q166 57 196 -138 Q227 -334 288 -497 Q349 -661 441 -779 L416 -802 Q342 -730 278 -621 Q215 -512 168 -373 Q121 -235 94 -72 Q68 90 68 270 Z" transform="translate(124.0178 0.48) scale(0.04 -0.04)"/>
    <path d="M448 150 Q448 71 391 29 Q335 -12 246 -12 Q159 -12 102 27 Q46 66 46 142 Q46 182 61 209 Q76 237 106 261 Q137 285 183 316 L183 319 Q132 355 105 382 Q79 410 69 437 Q59 465 59 499 Q59 545 83 578 Q108 611 151 629 Q194 647 249 647 Q299 647 338 629 Q378 611 401 580 Q424 549 424 509 Q424 473 411 447 Q398 421 370 399 Q342 378 295 352 L295 349 Q354 314 387 283 Q420 253 434 221 Q448 190 448 150 Z M213 300 Q170 266 147 234 Q124 202 124 150 Q124 83 158 51 Q193 19 250 19 Q297 19 330 44 Q364 70 364 121 Q364 153 351 179 Q339 205 306 233 Q274 261 213 300 Z M350 511 Q350 561 322 587 Q295 614 247 614 Q196 614 166 588 Q137 563 137 517 Q137 473 167 441 Q197 409 264 368 Q314 398 332 430 Q350 463 350 511 Z" transform="translate(142.9378 -31.2) scale(0.04 -0.04)"/>
    <path d="M415 646 L417 617 Q347 607 289 572 Q231 537 192 481 Q153 425 140 352 L147 351 Q178 381 208 397 Q238 413 277 413 Q359 413 408 357 Q457 301 457 203 Q457 101 405 44 Q354 -12 259 -12 Q185 -12 137 24 Q90 61 67 122 Q45 184 45 257 Q45 378 92 463 Q140 548 224 595 Q308 642 415 646 Z M370 195 Q370 263 339 309 Q309 355 247 355 Q218 355 192 343 Q167 332 151 306 Q135 280 135 236 Q135 174 149 126 Q163 78 191 50 Q220 23 263 23 Q313 23 341 61 Q370 100 370 195 Z" transform="translate(162.7378 -31.2) scale(0.04 -0.04)"/>
    <path d="M426 0 L80 0 L80 28 Q151 28 180 43 Q209 58 209 95 L209 518 Q209 544 202 555 Q195 567 176 567 Q161 567 129 563 Q97 559 74 551 L74 584 L268 639 L297 639 L297 95 Q297 58 327 43 Q357 28 426 28 L426 0 Z" transform="translate(152.8378 27.6) scale(0.04 -0.04)"/>
    <path d="M405 270 Q405 90 378 -72 Q352 -235 305 -373 Q258 -512 194 -621 Q131 -730 57 -802 L32 -779 Q124 -661 185 -497 Q246 -334 276 -138 Q307 57 307 270 Q307 484 276 679 Q246 874 185 1037 Q124 1201 32 1319 L57 1342 Q131 1270 194 1161 Q258 1052 305 913 Q352 775 378 612 Q405 450 405 270 Z" transform="translate(182.5378 0.48) scale(0.04 -0.04)"/>
    <path d="M658 225 L396 225 L396 -40 L324 -40 L324 225 L62 225 L62 293 L324 293 L324 558 L396 558 L396 293 L658 293 L658 225 Z" transform="translate(210.3467 0) scale(0.04 -0.04)"/>
    <path d="M68 270 Q68 450 94 612 Q121 775 168 913 Q215 1052 278 1161 Q342 1270 416 1342 L441 1319 Q349 1201 288 1037 Q227 874 196 679 Q166 484 166 270 Q166 57 196 -138 Q227 -334 288 -497 Q349 -661 441 -779 L416 -802 Q342 -730 278 -621 Q215 -512 168 -373 Q121 -235 94 -72 Q68 90 68 270 Z" transform="translate(248.0356 0.48) scale(0.04 -0.04)"/>
    <path d="M448 150 Q448 71 391 29 Q335 -12 246 -12 Q159 -12 102 27 Q46 66 46 142 Q46 182 61 209 Q76 237 106 261 Q137 285 183 316 L183 319 Q132 355 105 382 Q79 410 69 437 Q59 465 59 499 Q59 545 83 578 Q108 611 151 629 Q194 647 249 647 Q299 647 338 629 Q378 611 401 580 Q424 549 424 509 Q424 473 411 447 Q398 421 370 399 Q342 378 295 352 L295 349 Q354 314 387 283 Q420 253 434 221 Q448 190 448 150 Z M213 300 Q170 266 147 234 Q124 202 124 150 Q124 83 158 51 Q193 19 250 19 Q297 19 330 44 Q364 70 364 121 Q364 153 351 179 Q339 205 306 233 Q274 261 213 300 Z M350 511 Q350 561 322 587 Q295 614 247 614 Q196 614 166 588 Q137 563 137 517 Q137 473 167 441 Q197 409 264 368 Q314 398 332 430 Q350 463 350 511 Z" transform="translate(266.9556 -31.2) scale(0.04 -0.04)"/>
    <path d="M415 646 L417 617 Q347 607 289 572 Q231 537 192 481 Q153 425 140 352 L147 351 Q178 381 208 397 Q238 413 277 413 Q359 413 408 357 Q457 301 457 203 Q457 101 405 44 Q354 -12 259 -12 Q185 -12 137 24 Q90 61 67 122 Q45 184 45 257 Q45 378 92 463 Q140 548 224 595 Q308 642 415 646 Z M370 195 Q370 263 339 309 Q309 355 247 355 Q218 355 192 343 Q167 332 151 306 Q135 280 135 236 Q135 174 149 126 Q163 78 191 50 Q220 23 263 23 Q313 23 341 61 Q370 100 370 195 Z" transform="translate(286.7556 -31.2) scale(0.04 -0.04)"/>
    <path d="M464 160 L432 0 L38 0 L38 34 L190 186 Q240 237 273 278 Q306 320 322 362 Q339 404 339 456 Q339 512 305 545 Q272 579 214 579 Q165 579 130 558 Q96 537 68 481 L44 491 Q67 564 117 604 Q167 644 240 644 Q297 644 340 622 Q383 601 407 562 Q432 524 432 471 Q432 427 413 386 Q395 346 358 303 Q322 260 269 206 L137 81 L137 76 L207 79 L346 79 Q386 79 402 97 Q418 115 435 160 L464 160 Z" transform="translate(276.8556 27.6) scale(0.04 -0.04)"/>
    <path d="M405 270 Q405 90 378 -72 Q352 -235 305 -373 Q258 -512 194 -621 Q131 -730 57 -802 L32 -779 Q124 -661 185 -497 Q246 -334 276 -138 Q307 57 307 270 Q307 484 276 679 Q246 874 185 1037 Q124 1201 32 1319 L57 1342 Q131 1270 194 1161 Q258 1052 305 913 Q352 775 378 612 Q405 450 405 270 Z" transform="translate(306.5556 0.48) scale(0.04 -0.04)"/>
    <path d="M658 225 L396 225 L396 -40 L324 -40 L324 225 L62 225 L62 293 L324 293 L324 558 L396 558 L396 293 L658 293 L658 225 Z" transform="translate(334.3644 0) scale(0.04 -0.04)"/>
    <path d="M68 270 Q68 450 94 612 Q121 775 168 913 Q215 1052 278 1161 Q342 1270 416 1342 L441 1319 Q349 1201 288 1037 Q227 874 196 679 Q166 484 166 270 Q166 57 196 -138 Q227 -334 288 -497 Q349 -661 441 -779 L416 -802 Q342 -730 278 -621 Q215 -512 168 -373 Q121 -235 94 -72 Q68 90 68 270 Z" transform="translate(372.0533 0.48) scale(0.04 -0.04)"/>
    <path d="M448 150 Q448 71 391 29 Q335 -12 246 -12 Q159 -12 102 27 Q46 66 46 142 Q46 182 61 209 Q76 237 106 261 Q137 285 183 316 L183 319 Q132 355 105 382 Q79 410 69 437 Q59 465 59 499 Q59 545 83 578 Q108 611 151 629 Q194 647 249 647 Q299 647 338 629 Q378 611 401 580 Q424 549 424 509 Q424 473 411 447 Q398 421 370 399 Q342 378 295 352 L295 349 Q354 314 387 283 Q420 253 434 221 Q448 190 448 150 Z M213 300 Q170 266 147 234 Q124 202 124 150 Q124 83 158 51 Q193 19 250 19 Q297 19 330 44 Q364 70 364 121 Q364 153 351 179 Q339 205 306 233 Q274 261 213 300 Z M350 511 Q350 561 322 587 Q295 614 247 614 Q196 614 166 588 Q137 563 137 517 Q137 473 167 441 Q197 409 264 368 Q314 398 332 430 Q350 463 350 511 Z" transform="translate(390.9733 -31.2) scale(0.04 -0.04)"/>
    <path d="M415 646 L417 617 Q347 607 289 572 Q231 537 192 481 Q153 425 140 352 L147 351 Q178 381 208 397 Q238 413 277 413 Q359 413 408 357 Q457 301 457 203 Q457 101 405 44 Q354 -12 259 -12 Q185 -12 137 24 Q90 61 67 122 Q45 184 45 257 Q45 378 92 463 Q140 548 224 595 Q308 642 415 646 Z M370 195 Q370 263 339 309 Q309 355 247 355 Q218 355 192 343 Q167 332 151 306 Q135 280 135 236 Q135 174 149 126 Q163 78 191 50 Q220 23 263 23 Q313 23 341 61 Q370 100 370 195 Z" transform="translate(410.7733 -31.2) scale(0.04 -0.04)"/>
    <path d="M86 498 L63 511 Q120 644 244 644 Q321 644 363 605 Q405 567 405 510 Q405 458 374 426 Q344 394 297 364 L297 361 Q337 349 370 326 Q404 304 424 271 Q444 239 444 194 Q444 126 406 79 Q368 33 306 10 Q244 -13 171 -13 Q126 -13 102 -4 Q78 4 68 16 Q59 29 59 42 Q59 58 69 72 Q79 86 98 86 Q110 86 120 81 Q131 77 157 63 Q189 47 204 42 Q220 37 238 37 Q270 37 298 48 Q326 60 344 87 Q362 115 362 164 Q362 209 337 242 Q312 275 270 293 Q229 312 181 312 L161 312 L161 350 L180 350 Q214 350 246 367 Q278 384 298 415 Q319 446 319 486 Q319 530 291 554 Q264 579 217 579 Q172 579 142 558 Q112 538 86 498 Z" transform="translate(400.8733 27.6) scale(0.04 -0.04)"/>
    <path d="M405 270 Q405 90 378 -72 Q352 -235 305 -373 Q258 -512 194 -621 Q131 -730 57 -802 L32 -779 Q124 -661 185 -497 Q246 -334 276 -138 Q307 57 307 270 Q307 484 276 679 Q246 874 185 1037 Q124 1201 32 1319 L57 1342 Q131 1270 194 1161 Q258 1052 305 913 Q352 775 378 612 Q405 450 405 270 Z" transform="translate(430.5733 0.48) scale(0.04 -0.04)"/>
    <path d="M658 327 L62 327 L62 395 L658 395 L658 327 Z M658 123 L62 123 L62 190 L658 190 L658 123 Z" transform="translate(460.6044 0) scale(0.04 -0.04)"/>
    <path d="M426 0 L80 0 L80 28 Q151 28 180 43 Q209 58 209 95 L209 518 Q209 544 202 555 Q195 567 176 567 Q161 567 129 563 Q97 559 74 551 L74 584 L268 639 L297 639 L297 95 Q297 58 327 43 Q357 28 426 28 L426 0 Z" transform="translate(500.5156 0) scale(0.04 -0.04)"/>
    <path d="M468 317 Q468 253 455 194 Q443 135 416 89 Q390 43 348 16 Q306 -11 247 -11 Q187 -11 145 15 Q103 42 77 88 Q51 134 39 194 Q27 254 27 320 Q27 415 52 487 Q78 560 127 601 Q177 642 249 642 Q314 642 363 603 Q412 565 440 492 Q468 420 468 317 Z M371 311 Q371 463 339 535 Q308 608 246 608 Q187 608 155 536 Q123 464 123 315 Q123 170 155 97 Q187 25 247 25 Q306 25 338 96 Q371 167 371 311 Z" transform="translate(520.3156 0) scale(0.04 -0.04)"/>
    <path d="M415 646 L417 617 Q347 607 289 572 Q231 537 192 481 Q153 425 140 352 L147 351 Q178 381 208 397 Q238 413 277 413 Q359 413 408 357 Q457 301 457 203 Q457 101 405 44 Q354 -12 259 -12 Q185 -12 137 24 Q90 61 67 122 Q45 184 45 257 Q45 378 92 463 Q140 548 224 595 Q308 642 415 646 Z M370 195 Q370 263 339 309 Q309 355 247 355 Q218 355 192 343 Q167 332 151 306 Q135 280 135 236 Q135 174 149 126 Q163 78 191 50 Q220 23 263 23 Q313 23 341 61 Q370 100 370 195 Z" transform="translate(540.1156 0) scale(0.04 -0.04)"/>
    <path d="M70 -132 L58 -107 Q77 -99 96 -86 Q115 -74 128 -50 Q141 -26 141 14 Q125 8 110 8 Q81 8 68 24 Q55 40 55 62 Q55 86 71 103 Q87 121 117 121 Q155 121 174 97 Q194 74 194 33 Q194 -9 180 -38 Q167 -67 147 -85 Q127 -103 106 -114 Q85 -125 70 -132 Z" transform="translate(559.9156 0) scale(0.04 -0.04)"/>
    <path d="M468 317 Q468 253 455 194 Q443 135 416 89 Q390 43 348 16 Q306 -11 247 -11 Q187 -11 145 15 Q103 42 77 88 Q51 134 39 194 Q27 254 27 320 Q27 415 52 487 Q78 560 127 601 Q177 642 249 642 Q314 642 363 603 Q412 565 440 492 Q468 420 468 317 Z M371 311 Q371 463 339 535 Q308 608 246 608 Q187 608 155 536 Q123 464 123 315 Q123 170 155 97 Q187 25 247 25 Q306 25 338 96 Q371 167 371 311 Z" transform="translate(569.7156 0) scale(0.04 -0.04)"/>
    <path d="M448 150 Q448 71 391 29 Q335 -12 246 -12 Q159 -12 102 27 Q46 66 46 142 Q46 182 61 209 Q76 237 106 261 Q137 285 183 316 L183 319 Q132 355 105 382 Q79 410 69 437 Q59 465 59 499 Q59 545 83 578 Q108 611 151 629 Q194 647 249 647 Q299 647 338 629 Q378 611 401 580 Q424 549 424 509 Q424 473 411 447 Q398 421 370 399 Q342 378 295 352 L295 349 Q354 314 387 283 Q420 253 434 221 Q448 190 448 150 Z M213 300 Q170 266 147 234 Q124 202 124 150 Q124 83 158 51 Q193 19 250 19 Q297 19 330 44 Q364 70 364 121 Q364 153 351 179 Q339 205 306 233 Q274 261 213 300 Z M350 511 Q350 561 322 587 Q295 614 247 614 Q196 614 166 588 Q137 563 137 517 Q137 473 167 441 Q197 409 264 368 Q314 398 332 430 Q350 463 350 511 Z" transform="translate(589.5156 0) scale(0.04 -0.04)"/>
    <path d="M464 160 L432 0 L38 0 L38 34 L190 186 Q240 237 273 278 Q306 320 322 362 Q339 404 339 456 Q339 512 305 545 Q272 579 214 579 Q165 579 130 558 Q96 537 68 481 L44 491 Q67 564 117 604 Q167 644 240 644 Q297 644 340 622 Q383 601 407 562 Q432 524 432 471 Q432 427 413 386 Q395 346 358 303 Q322 260 269 206 L137 81 L137 76 L207 79 L346 79 Q386 79 402 97 Q418 115 435 160 L464 160 Z" transform="translate(609.3156 0) scale(0.04 -0.04)"/>
  </g>
</svg>